<svg xmlns="http://www.w3.org/2000/svg" viewBox="0 0 420 700" role="img" aria-labelledby="title desc">
<title id="title">Hoshi tarot image placeholder</title><desc id="desc">A temporary celestial placeholder. Add the Rider-Waite-Smith card image in the matching assets/cards folder.</desc>
<defs><linearGradient id="bg" x2=".2" y2="1"><stop stop-color="#ece3d0"/><stop offset="1" stop-color="#d3c3a4"/></linearGradient><radialGradient id="glow"><stop stop-color="#fff5d5" stop-opacity=".7"/><stop offset="1" stop-color="#b4a0d8" stop-opacity="0"/></radialGradient></defs>
<rect x="8" y="8" width="404" height="684" rx="22" fill="url(#bg)"/><rect x="20" y="20" width="380" height="660" rx="17" fill="none" stroke="#786d91" stroke-width="2"/><rect x="29" y="29" width="362" height="642" rx="12" fill="none" stroke="#9b8cad" opacity=".6"/>
<circle cx="210" cy="310" r="158" fill="url(#glow)"/><circle cx="210" cy="310" r="111" fill="none" stroke="#887b9e" stroke-width="2"/><circle cx="210" cy="310" r="79" fill="none" stroke="#a393b6"/><path d="M210 227c-22 24-30 48-30 73 0 39 28 67 62 67 28 0 48-19 48-44 0-24-19-41-41-41-17 0-28 11-28 25 0 9 5 16 13 19-28-2-44-22-44-49 0-17 7-33 20-50z" fill="#8f7ca6" opacity=".8"/><path d="M126 310h168M210 226v168" stroke="#a393b6" opacity=".5"/><path d="m99 166 7 14 15 2-11 10 3 15-14-8-13 8 3-15-11-10 15-2zM319 428l6 12 13 2-9 9 2 13-12-6-11 6 2-13-9-9 13-2z" fill="#a48b58"/>
<text x="210" y="505" text-anchor="middle" font-family="Georgia,serif" font-size="18" letter-spacing="4" fill="#5d5472">HOSHI TAROT</text><text x="210" y="548" text-anchor="middle" font-family="Arial,sans-serif" font-size="13" letter-spacing="2" fill="#746a85">RWS IMAGE NEEDED</text><text x="210" y="572" text-anchor="middle" font-family="Arial,sans-serif" font-size="10" letter-spacing="1" fill="#8a819a">ADD YOUR CARD FILE TO ASSETS/CARDS</text>
</svg>

